<?xml version="1.0" encoding="UTF-8"?>
<svg id="Layer_1" data-name="Layer 1" xmlns="http://www.w3.org/2000/svg" viewBox="0 0 18.49 24">
  <path d="M14.67,2.73h-2.38V0h-2.57v2.73h-.95V0h-2.57v2.73H0v2.57h14.67c.69,0,1.22.56,1.22,1.22v4h-3.6v-4.05h-2.57v4.05h-.95v-4.05h-2.57v4.05H0v6.57c0,2.1,1.69,3.79,3.79,3.79h2.42v3.13h2.57v-3.13h.95v3.13h2.57v-3.13h6.2V6.52c0-2.1-1.69-3.79-3.82-3.79ZM15.89,18.31h-3.6v-4.05h-2.57v4.05h-.95v-4.05h-2.57v4.05h-2.42c-.66,0-1.22-.56-1.22-1.22v-4h13.33v5.22Z"/>
</svg>